# Blender v3.0.0 OBJ File: ''
# www.blender.org
o Cube
v -1.212165 -2.215234 -0.849916
v 0.790090 -2.191755 -0.797253
v -1.221205 2.424590 -0.744822
v 0.781050 2.448070 -0.692158
v -1.212165 -2.215234 -0.849916
v 0.790090 -2.191755 -0.797253
v -1.264553 -2.519066 1.153573
v 0.737702 -2.495588 1.206236
v -0.220078 2.436331 -0.718490
v -0.263426 -2.507326 1.179904
v 0.785570 0.128158 -0.744705
v 0.754856 2.296153 0.309586
v 0.728662 2.144237 1.311331
v -1.273594 2.120758 1.258667
v 0.781050 2.448070 -0.692158
v -1.221205 2.424590 -0.744822
v -1.216685 0.104678 -0.797369
v 0.763896 -2.343671 0.204492
v 0.733182 -0.175675 1.258784
v -1.247399 2.272674 0.256923
v -0.211037 -2.203494 -0.823585
v -0.220078 2.436331 -0.718490
v 0.785570 0.128158 -0.744705
v -1.216685 0.104678 -0.797369
v -1.238359 -2.367150 0.151828
v -1.269073 -0.199154 1.206120
v -0.272466 2.132497 1.284999
v -0.211037 -2.203494 -0.823585
v 0.759376 -0.023759 0.257039
v -0.215557 0.116418 -0.771037
v -0.237232 -2.355411 0.178160
v -1.242879 -0.047238 0.204376
v -0.246272 2.284414 0.283255
v -0.267946 -0.187415 1.232452
vt 0.437500 0.375000
vt 0.562500 0.500000
vt 0.437500 0.500000
vt 0.562500 0.625000
vt 0.437500 0.750000
vt 0.437500 0.625000
vt 0.187500 0.625000
vt 0.312500 0.750000
vt 0.187500 0.750000
vt 0.562500 0.125000
vt 0.437500 0.250000
vt 0.437500 0.125000
vt 0.437500 0.875000
vt 0.562500 1.000000
vt 0.437500 1.000000
vt 0.687500 0.625000
vt 0.812500 0.750000
vt 0.687500 0.750000
vt 0.562500 0.750000
vt 0.437500 0.750000
vt 0.312500 0.875000
vt 0.312500 0.750000
vt 0.312500 1.000000
vt 0.687500 0.500000
vt 0.812500 0.625000
vt 0.562500 0.750000
vt 0.312500 0.250000
vt 0.312500 0.125000
vt 0.437500 0.000000
vt 0.312500 0.000000
vt 0.062500 0.625000
vt 0.062500 0.750000
vt 0.187500 0.500000
vt 0.062500 0.500000
vt 0.312500 0.500000
vt 0.312500 0.625000
vt 0.312500 0.375000
vt 0.562500 0.375000
vt 0.562500 0.250000
vt 0.562500 0.875000
vt 0.812500 0.500000
vt 0.562500 0.000000
vn -0.0260 -0.0227 0.9994
vn -0.0155 0.9886 0.1495
vn -0.9997 -0.0014 -0.0263
vn 0.0155 -0.9886 -0.1495
vn 0.0260 0.0227 -0.9994
vn 0.9997 0.0014 0.0263
s off
f 34/1/1 13/2/1 27/3/1
f 12/4/2 9/5/2 33/6/2
f 32/7/3 16/8/3 17/9/3
f 18/10/4 10/11/4 31/12/4
f 30/13/5 2/14/5 21/15/5
f 29/16/6 6/17/6 11/18/6
f 4/19/5 30/13/5 22/20/5
f 22/20/5 24/21/5 3/22/5
f 30/13/5 1/23/5 24/21/5
f 19/24/6 18/25/6 29/16/6
f 13/2/6 29/16/6 12/4/6
f 12/4/6 11/18/6 15/26/6
f 31/12/4 7/27/4 25/28/4
f 28/29/4 25/28/4 5/30/4
f 28/29/4 18/10/4 31/12/4
f 25/31/3 17/9/3 5/32/3
f 26/33/3 25/31/3 7/34/3
f 14/35/3 32/7/3 26/33/3
f 33/6/2 16/8/2 20/36/2
f 27/3/2 20/36/2 14/35/2
f 13/2/2 33/6/2 27/3/2
f 26/37/1 27/3/1 14/35/1
f 10/11/1 26/37/1 7/27/1
f 10/11/1 19/38/1 34/1/1
f 34/1/1 19/38/1 13/2/1
f 12/4/2 15/26/2 9/5/2
f 32/7/3 20/36/3 16/8/3
f 18/10/4 8/39/4 10/11/4
f 30/13/5 23/40/5 2/14/5
f 29/16/6 18/25/6 6/17/6
f 4/19/5 23/40/5 30/13/5
f 22/20/5 30/13/5 24/21/5
f 30/13/5 21/15/5 1/23/5
f 19/24/6 8/41/6 18/25/6
f 13/2/6 19/24/6 29/16/6
f 12/4/6 29/16/6 11/18/6
f 31/12/4 10/11/4 7/27/4
f 28/29/4 31/12/4 25/28/4
f 28/29/4 6/42/4 18/10/4
f 25/31/3 32/7/3 17/9/3
f 26/33/3 32/7/3 25/31/3
f 14/35/3 20/36/3 32/7/3
f 33/6/2 9/5/2 16/8/2
f 27/3/2 33/6/2 20/36/2
f 13/2/2 12/4/2 33/6/2
f 26/37/1 34/1/1 27/3/1
f 10/11/1 34/1/1 26/37/1
f 10/11/1 8/39/1 19/38/1
